<?xml version="1.0" encoding="utf-8"?>
<svg width="128" height="128" viewBox="0 0 500 500" xmlns="http://www.w3.org/2000/svg">
  <path fill-rule="evenodd" d="M 248.601 4.682 C 114.307 4.682 5.535 116.929 5.535 255.511 C 5.535 366.503 75.113 460.25 171.732 493.485 C 183.885 495.681 188.442 488.155 188.442 481.572 C 188.442 475.613 188.139 455.861 188.139 434.855 C 127.068 446.455 111.269 419.491 106.408 405.382 C 103.673 398.171 91.824 375.909 81.494 369.952 C 72.987 365.25 60.832 353.648 81.189 353.335 C 100.331 353.021 114.003 371.52 118.561 379.045 C 140.437 416.983 175.378 406.322 189.354 399.738 C 191.48 383.435 197.861 372.46 204.849 366.19 C 150.767 359.918 94.255 338.285 94.255 242.343 C 94.255 215.066 103.673 192.49 119.169 174.932 C 116.738 168.662 108.231 142.951 121.599 108.462 C 121.599 108.462 141.957 101.879 188.442 134.173 C 207.887 128.528 228.549 125.707 249.209 125.707 C 269.87 125.707 290.53 128.528 309.975 134.173 C 356.462 101.565 376.819 108.462 376.819 108.462 C 390.187 142.951 381.68 168.662 379.25 174.932 C 394.744 192.49 404.164 214.752 404.164 242.343 C 404.164 338.599 347.347 359.918 293.265 366.19 C 302.075 374.027 309.672 389.078 309.672 412.594 C 309.672 446.142 309.367 473.106 309.367 481.572 C 309.367 488.155 313.925 495.994 326.079 493.485 C 425.036 459.028 491.667 363.274 491.667 255.511 C 491.667 116.929 382.895 4.682 248.601 4.682 Z" style="fill: rgb(255, 255, 255);"/>
</svg>
